<svg width="49" height="31" viewBox="0 0 49 31" fill="none" xmlns="http://www.w3.org/2000/svg">
<path id="Vector" d="M49 0L13.1521 27.5867C10.1794 29.8598 7.68247 31 5.66325 31C3.37656 31 1.71668 29.5535 0.687667 26.6568C0.0404536 24.797 -0.149423 22.4391 0.115996 19.5793C0.381415 16.7196 1.08784 13.6753 2.23118 10.4354C3.18464 7.8155 4.74653 4.37269 6.92092 0.103321C6.1834 2.20172 5.64257 4.50575 5.32024 6.92251C4.74857 11.3321 5.26308 14.5683 6.86376 16.6347C7.6253 17.5978 8.67269 18.0812 10.0079 18.0812C11.0737 18.0812 12.2742 17.7712 13.6095 17.1513L49 0Z" fill="black"/>
</svg>
